<svg width="39" height="38" viewBox="0 0 39 38" fill="none" xmlns="http://www.w3.org/2000/svg">
<path d="M18.8676 34.759H0.596223C0.269262 34.759 0 34.498 0 34.1669V0.592158C0 0.261059 0.262851 0 0.596223 0H34.4014C34.7284 0 34.9976 0.261059 34.9976 0.592158V12.0724C34.9976 12.3971 34.7348 12.6645 34.4014 12.6645H29.061C28.7341 12.6645 28.4648 12.4035 28.4648 12.0724V7.07406C28.4648 6.74933 28.202 6.4819 27.8686 6.4819H7.1162C6.78924 6.4819 6.51998 6.74296 6.51998 7.07406V27.685C6.51998 28.0097 6.78283 28.2771 7.1162 28.2771H18.8676C19.1945 28.2771 19.4638 28.5382 19.4638 28.8693V34.1733C19.4638 34.498 19.2009 34.7654 18.8676 34.7654V34.759Z" fill="url(#paint0_linear_2_3981)"/>
<path d="M37.6582 33.2882H25.8042C25.4749 33.2882 25.208 33.5533 25.208 33.8804V37.4078C25.208 37.7349 25.4749 38 25.8042 38H37.6582C37.9874 38 38.2544 37.7349 38.2544 37.4078V33.8804C38.2544 33.5533 37.9874 33.2882 37.6582 33.2882Z" fill="url(#paint1_linear_2_3981)"/>
<path d="M25.8043 21.4705H37.6646C37.9916 21.4705 38.2608 21.2094 38.2608 20.8783V17.3445C38.2608 17.0198 37.998 16.7523 37.6646 16.7523H25.8043C25.4773 16.7523 25.2081 16.4913 25.2081 16.1602V13.2057C25.2081 12.881 24.9452 12.6136 24.6118 12.6136H12.7515C12.4245 12.6136 12.1553 12.8746 12.1553 13.2057V16.7396C12.1553 17.0643 12.4181 17.3318 12.7515 17.3318H24.6118C24.9388 17.3318 25.2016 17.5928 25.2016 17.9239V20.2989C25.2016 20.6236 24.9388 20.8911 24.6054 20.8911H12.7515C12.4245 20.8911 12.1553 21.1521 12.1553 21.4832V25.0171C12.1553 25.3418 12.4181 25.6092 12.7515 25.6092H24.6118C24.9388 25.6092 25.2081 25.8703 25.2081 26.2014V29.1558C25.2081 29.4805 25.4709 29.748 25.8043 29.748H37.6646C37.9916 29.748 38.2608 29.4869 38.2608 29.1558V25.622C38.2608 25.2972 37.998 25.0298 37.6646 25.0298H25.8043C25.4773 25.0298 25.2081 24.7688 25.2081 24.4377V22.0627C25.2081 21.7379 25.4709 21.4705 25.8043 21.4705V21.4705Z" fill="url(#paint2_linear_2_3981)"/>
<defs>
<linearGradient id="paint0_linear_2_3981" x1="0" y1="17.3763" x2="34.9976" y2="17.3763" gradientUnits="userSpaceOnUse">
<stop stop-color="#0087F9"/>
<stop offset="0.5" stop-color="#55BBE7"/>
<stop offset="1" stop-color="#73CACD"/>
</linearGradient>
<linearGradient id="paint1_linear_2_3981" x1="25.208" y1="35.6441" x2="38.2544" y2="35.6441" gradientUnits="userSpaceOnUse">
<stop stop-color="#55BBE7"/>
<stop offset="1" stop-color="#73CACD"/>
</linearGradient>
<linearGradient id="paint2_linear_2_3981" x1="12.1617" y1="21.1776" x2="38.2544" y2="21.1776" gradientUnits="userSpaceOnUse">
<stop stop-color="#0087F9"/>
<stop offset="0.5" stop-color="#55BBE7"/>
<stop offset="1" stop-color="#73CACD"/>
</linearGradient>
</defs>
</svg>
