<svg width="167" height="38" viewBox="0 0 167 38" fill="none" xmlns="http://www.w3.org/2000/svg">
<g clip-path="url(#clip0_2_3661)">
<path d="M18.8676 34.759H0.596223C0.269262 34.759 0 34.498 0 34.1669V0.592158C0 0.261059 0.262851 0 0.596223 0H34.4014C34.7284 0 34.9976 0.261059 34.9976 0.592158V12.0724C34.9976 12.3971 34.7348 12.6645 34.4014 12.6645H29.061C28.7341 12.6645 28.4648 12.4035 28.4648 12.0724V7.07406C28.4648 6.74933 28.202 6.4819 27.8686 6.4819H7.1162C6.78924 6.4819 6.51998 6.74296 6.51998 7.07406V27.685C6.51998 28.0097 6.78283 28.2771 7.1162 28.2771H18.8676C19.1945 28.2771 19.4638 28.5382 19.4638 28.8693V34.1733C19.4638 34.498 19.2009 34.7654 18.8676 34.7654V34.759Z" fill="url(#paint0_linear_2_3661)"/>
<path d="M37.6582 33.2882H25.8042C25.4749 33.2882 25.208 33.5533 25.208 33.8804V37.4078C25.208 37.7349 25.4749 38 25.8042 38H37.6582C37.9874 38 38.2544 37.7349 38.2544 37.4078V33.8804C38.2544 33.5533 37.9874 33.2882 37.6582 33.2882Z" fill="url(#paint1_linear_2_3661)"/>
<path d="M25.8043 21.4705H37.6646C37.9916 21.4705 38.2608 21.2094 38.2608 20.8783V17.3445C38.2608 17.0198 37.998 16.7523 37.6646 16.7523H25.8043C25.4773 16.7523 25.2081 16.4913 25.2081 16.1602V13.2057C25.2081 12.881 24.9452 12.6136 24.6118 12.6136H12.7515C12.4245 12.6136 12.1553 12.8746 12.1553 13.2057V16.7396C12.1553 17.0643 12.4181 17.3318 12.7515 17.3318H24.6118C24.9388 17.3318 25.2016 17.5928 25.2016 17.9239V20.2989C25.2016 20.6236 24.9388 20.8911 24.6054 20.8911H12.7515C12.4245 20.8911 12.1553 21.1521 12.1553 21.4832V25.0171C12.1553 25.3418 12.4181 25.6092 12.7515 25.6092H24.6118C24.9388 25.6092 25.2081 25.8703 25.2081 26.2014V29.1558C25.2081 29.4805 25.4709 29.748 25.8043 29.748H37.6646C37.9916 29.748 38.2608 29.4869 38.2608 29.1558V25.622C38.2608 25.2972 37.998 25.0298 37.6646 25.0298H25.8043C25.4773 25.0298 25.2081 24.7688 25.2081 24.4377V22.0627C25.2081 21.7379 25.4709 21.4705 25.8043 21.4705Z" fill="url(#paint2_linear_2_3661)"/>
<path d="M51.5316 33.9186V4.08142H62.193C65.437 4.08142 68.136 4.74999 70.2966 6.08075C72.4571 7.41151 74.0854 9.20709 75.1817 11.4611C76.2844 13.7151 76.8294 16.2175 76.8294 18.9618C76.8294 21.9862 76.2267 24.6223 75.0279 26.8636C73.829 29.1049 72.1301 30.8431 69.9311 32.072C67.7322 33.3073 65.1485 33.9186 62.1866 33.9186H51.5251H51.5316ZM72.0083 18.9554C72.0083 16.8542 71.6172 15.0077 70.8479 13.4095C70.0722 11.8113 68.9567 10.5506 67.5078 9.62733C66.0525 8.70407 64.283 8.23926 62.1995 8.23926H56.3206V29.7607H62.1995C64.3151 29.7607 66.0973 29.2832 67.5526 28.3344C69.0079 27.3793 70.1106 26.0931 70.8735 24.4695C71.6365 22.8458 72.0147 21.0121 72.0147 18.9618L72.0083 18.9554Z" fill="#333333" stroke="#333333" stroke-width="0.4"/>
<path d="M94.2672 34.1287C92.1516 34.1287 90.2219 33.7084 88.4717 32.8679C86.7215 32.0275 85.2085 30.8877 83.9199 29.4423C82.6377 27.997 81.6504 26.3733 80.958 24.565C80.2656 22.7567 79.9194 20.9038 79.9194 18.9936C79.9194 17.0834 80.2849 15.1096 81.0221 13.3013C81.753 11.4929 82.7787 9.88202 84.093 8.46848C85.4072 7.05494 86.9267 5.9343 88.664 5.10655C90.4014 4.2788 92.3119 3.86493 94.3955 3.86493C96.479 3.86493 98.5177 4.2979 100.255 5.17022C101.992 6.03618 103.493 7.20139 104.762 8.6595C106.031 10.1176 107.006 11.7413 107.679 13.5368C108.359 15.3324 108.692 17.1789 108.692 19.0828C108.692 20.9866 108.339 22.9286 107.634 24.7369C106.929 26.5452 105.922 28.1561 104.608 29.5697C103.294 30.9832 101.775 32.0975 100.037 32.9125C98.2997 33.7275 96.3765 34.1287 94.2608 34.1287H94.2672ZM84.7918 19C84.7918 20.4263 85.0098 21.7952 85.4457 23.0942C85.8817 24.3994 86.5163 25.5583 87.3498 26.5834C88.1832 27.6086 89.1833 28.4108 90.3565 28.9966C91.5297 29.5824 92.8568 29.8817 94.357 29.8817C95.8572 29.8817 97.2355 29.5761 98.4216 28.9584C99.6076 28.3408 100.608 27.5067 101.428 26.4561C102.249 25.4055 102.864 24.2339 103.288 22.9477C103.711 21.6615 103.922 20.3435 103.922 19C103.922 17.5737 103.698 16.2111 103.243 14.9249C102.794 13.6387 102.14 12.4799 101.294 11.4547C100.447 10.4296 99.4409 9.62733 98.2677 9.04154C97.0945 8.45575 95.7931 8.15648 94.3506 8.15648C92.7991 8.15648 91.44 8.46211 90.2668 9.07974C89.0936 9.69737 88.0999 10.5251 87.2857 11.5566C86.4651 12.5945 85.8496 13.7597 85.4265 15.0459C85.0033 16.3321 84.7918 17.6501 84.7918 18.9936V19Z" fill="#333333" stroke="#333333" stroke-width="0.4"/>
<path d="M111.744 18.7453C111.744 16.9243 112.071 15.1414 112.718 13.3904C113.366 11.6394 114.321 10.0412 115.577 8.60222C116.834 7.15684 118.353 6.01073 120.148 5.15751C121.937 4.30429 123.976 3.87769 126.264 3.87769C129.002 3.87769 131.348 4.48895 133.31 5.7051C135.272 6.92125 136.727 8.4876 137.689 10.3914L133.964 12.8683C133.426 11.6649 132.727 10.7098 131.868 10.0094C131.009 9.30899 130.073 8.8187 129.053 8.53854C128.04 8.25838 127.053 8.1183 126.091 8.1183C124.54 8.1183 123.174 8.43667 121.988 9.06703C120.802 9.69739 119.809 10.5315 119.007 11.5694C118.206 12.6072 117.603 13.7725 117.212 15.0587C116.815 16.3448 116.622 17.6374 116.622 18.9236C116.622 20.3817 116.853 21.7698 117.321 23.0814C117.789 24.3995 118.449 25.571 119.309 26.5898C120.168 27.6149 121.187 28.4172 122.354 29.003C123.527 29.5888 124.816 29.8881 126.226 29.8881C127.213 29.8881 128.226 29.7225 129.271 29.3851C130.316 29.0476 131.278 28.5191 132.169 27.7869C133.06 27.061 133.759 26.1314 134.265 25.0107L138.202 27.1947C137.612 28.6783 136.657 29.939 135.342 30.9769C134.028 32.0147 132.554 32.7979 130.919 33.3328C129.284 33.8676 127.662 34.1287 126.053 34.1287C123.995 34.1287 122.091 33.6893 120.341 32.8043C118.591 31.9192 117.078 30.7477 115.789 29.2768C114.5 27.806 113.513 26.1505 112.808 24.3167C112.103 22.4829 111.75 20.6237 111.75 18.7453H111.744Z" fill="#333333" stroke="#333333" stroke-width="0.4"/>
<path d="M150.838 4.08142H155.326L167.006 33.9186H162.012L159.076 25.8066H147.062L144.113 33.9186H139.119L150.838 4.08142ZM157.813 22.3173L153.082 9.2453L148.331 22.3173H157.813Z" fill="#333333" stroke="#333333" stroke-width="0.4"/>
</g>
<defs>
<linearGradient id="paint0_linear_2_3661" x1="0" y1="17.3763" x2="34.9976" y2="17.3763" gradientUnits="userSpaceOnUse">
<stop stop-color="#0087F9"/>
<stop offset="0.5" stop-color="#55BBE7"/>
<stop offset="1" stop-color="#73CACD"/>
</linearGradient>
<linearGradient id="paint1_linear_2_3661" x1="25.208" y1="35.6441" x2="38.2544" y2="35.6441" gradientUnits="userSpaceOnUse">
<stop stop-color="#55BBE7"/>
<stop offset="1" stop-color="#73CACD"/>
</linearGradient>
<linearGradient id="paint2_linear_2_3661" x1="12.1617" y1="21.1776" x2="38.2544" y2="21.1776" gradientUnits="userSpaceOnUse">
<stop stop-color="#0087F9"/>
<stop offset="0.5" stop-color="#55BBE7"/>
<stop offset="1" stop-color="#73CACD"/>
</linearGradient>
<clipPath id="clip0_2_3661">
<rect width="167" height="38" fill="white"/>
</clipPath>
</defs>
</svg>
