<svg width="24" height="24" viewBox="0 0 24 24" fill="none" xmlns="http://www.w3.org/2000/svg">
<path d="M12 22.0001C10.8181 22.0001 9.64777 21.7673 8.55584 21.315C7.46391 20.8627 6.47176 20.1998 5.63603 19.364C4.80031 18.5283 4.13737 17.5362 3.68508 16.4442C3.23279 15.3523 2.99999 14.182 2.99999 13.0001C2.99999 11.8182 3.23279 10.6479 3.68508 9.55592C4.13737 8.46399 4.80031 7.47184 5.63603 6.63611C6.47176 5.80038 7.46391 5.13745 8.55584 4.68515C9.64777 4.23286 10.8181 4.00007 12 4.00007C14.3869 4.00007 16.6761 4.94828 18.364 6.63611C20.0518 8.32394 21 10.6131 21 13.0001C21 15.387 20.0518 17.6762 18.364 19.364C16.6761 21.0519 14.3869 22.0001 12 22.0001ZM13 13.0001V8.00007H11V15.0001H16V13.0001H13ZM1.74699 6.28207L5.28199 2.74707L6.69699 4.16107L3.15999 7.69707L1.74699 6.28207ZM18.717 2.74707L22.253 6.28207L20.839 7.69707L17.303 4.16107L18.718 2.74707H18.717Z" fill="#03053D"/>
</svg>
