<svg width="24" height="24" viewBox="0 0 24 24" fill="none" xmlns="http://www.w3.org/2000/svg">
<path d="M18.172 6.9998H11C9.4087 6.9998 7.88258 7.63195 6.75736 8.75716C5.63214 9.88238 5 11.4085 5 12.9998C5 14.5911 5.63214 16.1172 6.75736 17.2424C7.88258 18.3677 9.4087 18.9998 11 18.9998H20V20.9998H11C8.87827 20.9998 6.84344 20.157 5.34315 18.6567C3.84285 17.1564 3 15.1215 3 12.9998C3 10.8781 3.84285 8.84324 5.34315 7.34295C6.84344 5.84266 8.87827 4.9998 11 4.9998H18.172L15.636 2.4638L17.05 1.0498L22 5.9998L17.05 10.9498L15.636 9.5358L18.172 6.9998Z" fill="#03053D"/>
</svg>
