<svg width="24" height="24" viewBox="0 0 24 24" fill="none" xmlns="http://www.w3.org/2000/svg">
<path d="M6.535 3H21C21.2652 3 21.5196 3.10536 21.7071 3.29289C21.8946 3.48043 22 3.73478 22 4V20C22 20.2652 21.8946 20.5196 21.7071 20.7071C21.5196 20.8946 21.2652 21 21 21H6.535C6.37041 21 6.20835 20.9594 6.06322 20.8818C5.91808 20.8042 5.79435 20.6919 5.703 20.555L0.37 12.555C0.260361 12.3907 0.20185 12.1975 0.20185 12C0.20185 11.8025 0.260361 11.6093 0.37 11.445L5.703 3.445C5.79435 3.30808 5.91808 3.19583 6.06322 3.11821C6.20835 3.04058 6.37041 2.99998 6.535 3ZM16 11H9V13H16V11Z" fill="#03053D"/>
</svg>
