<svg width="24" height="24" viewBox="0 0 24 24" fill="none" xmlns="http://www.w3.org/2000/svg">
<path d="M6.535 3H21C21.2652 3 21.5196 3.10536 21.7071 3.29289C21.8946 3.48043 22 3.73478 22 4V20C22 20.2652 21.8946 20.5196 21.7071 20.7071C21.5196 20.8946 21.2652 21 21 21H6.535C6.37041 21 6.20835 20.9594 6.06322 20.8818C5.91808 20.8042 5.79435 20.6919 5.703 20.555L0.370001 12.555C0.260362 12.3907 0.201851 12.1975 0.201851 12C0.201851 11.8025 0.260362 11.6093 0.370001 11.445L5.703 3.445C5.79435 3.30808 5.91808 3.19583 6.06322 3.11821C6.20835 3.04058 6.37041 2.99998 6.535 3ZM7.07 5L2.404 12L7.07 19H20V5H7.07ZM13 10.586L15.828 7.757L17.243 9.172L14.414 12L17.243 14.828L15.828 16.243L13 13.414L10.172 16.243L8.757 14.828L11.586 12L8.757 9.172L10.172 7.757L13 10.586Z" fill="#03053D"/>
</svg>
