<svg width="24" height="24" viewBox="0 0 24 24" fill="none" xmlns="http://www.w3.org/2000/svg">
<path d="M10.13 15.8422L9.342 18.7822L7.411 18.2642L8.198 15.3252C7.01997 14.8907 5.92512 14.2576 4.961 13.4532L2.808 15.6072L1.393 14.1922L3.547 12.0392C2.33108 10.583 1.51409 8.83596 1.176 6.9692L2.076 6.8042C4.96522 8.88738 8.43809 10.0058 12 10.0002C15.704 10.0002 19.131 8.8152 21.924 6.8042L22.824 6.9682C22.4864 8.83522 21.6697 10.5826 20.454 12.0392L22.607 14.1922L21.192 15.6072L19.039 13.4532C18.0749 14.2576 16.98 14.8907 15.802 15.3252L16.589 18.2652L14.658 18.7822L13.87 15.8422C12.6324 16.0543 11.3676 16.0543 10.13 15.8422Z" fill="#03053D"/>
</svg>
