<svg width="24" height="24" viewBox="0 0 24 24" fill="none" xmlns="http://www.w3.org/2000/svg">
<path d="M2.132 13.6298C1.95262 12.5505 1.95262 11.449 2.132 10.3698C3.234 10.3958 4.224 9.86777 4.609 8.93877C4.994 8.00877 4.667 6.93477 3.869 6.17577C4.50541 5.28505 5.28456 4.50557 6.175 3.86877C6.935 4.66677 8.009 4.99377 8.939 4.60877C9.869 4.22377 10.396 3.23277 10.369 2.13177C11.4489 1.95217 12.5511 1.95217 13.631 2.13177C13.604 3.23377 14.132 4.22377 15.061 4.60877C15.991 4.99377 17.065 4.66677 17.824 3.86877C18.7147 4.50518 19.4942 5.28433 20.131 6.17477C19.333 6.93477 19.006 8.00877 19.391 8.93877C19.776 9.86877 20.767 10.3958 21.868 10.3688C22.0476 11.4487 22.0476 12.5508 21.868 13.6308C20.766 13.6038 19.776 14.1318 19.391 15.0608C19.006 15.9908 19.333 17.0648 20.131 17.8238C19.4946 18.7145 18.7154 19.494 17.825 20.1308C17.065 19.3328 15.991 19.0058 15.061 19.3908C14.131 19.7758 13.604 20.7668 13.631 21.8678C12.5511 22.0474 11.4489 22.0474 10.369 21.8678C10.396 20.7658 9.868 19.7758 8.939 19.3908C8.009 19.0058 6.935 19.3328 6.176 20.1308C5.28529 19.4944 4.5058 18.7152 3.869 17.8248C4.667 17.0648 4.994 15.9908 4.609 15.0608C4.224 14.1308 3.233 13.6038 2.132 13.6308V13.6298ZM12 14.9998C12.7956 14.9998 13.5587 14.6837 14.1213 14.1211C14.6839 13.5585 15 12.7954 15 11.9998C15 11.2041 14.6839 10.4411 14.1213 9.87845C13.5587 9.31584 12.7956 8.99977 12 8.99977C11.2043 8.99977 10.4413 9.31584 9.87868 9.87845C9.31607 10.4411 9 11.2041 9 11.9998C9 12.7954 9.31607 13.5585 9.87868 14.1211C10.4413 14.6837 11.2043 14.9998 12 14.9998Z" fill="#03053D"/>
</svg>
