<svg width="24" height="24" viewBox="0 0 24 24" fill="none" xmlns="http://www.w3.org/2000/svg">
<path d="M9.954 2.21021C11.3029 1.92735 12.6958 1.92667 14.045 2.20821C14.1349 2.8015 14.3573 3.3669 14.6958 3.86239C15.0342 4.35788 15.48 4.77072 16 5.07021C16.5196 5.37075 17.1002 5.55028 17.6987 5.59547C18.2972 5.64065 18.8982 5.55033 19.457 5.33121C20.3753 6.35928 21.0709 7.56625 21.5 8.87622C21.0313 9.25079 20.6531 9.72616 20.3934 10.267C20.1337 10.8078 19.9993 11.4003 20 12.0002C20 13.2642 20.586 14.3912 21.502 15.1242C21.0703 16.4331 20.3739 17.6391 19.456 18.6672C18.8973 18.4483 18.2965 18.358 17.6982 18.4032C17.0999 18.4484 16.5194 18.6278 16 18.9282C15.4805 19.2276 15.035 19.6402 14.6967 20.1353C14.3585 20.6304 14.1361 21.1954 14.046 21.7882C12.6972 22.0717 11.3043 22.0731 9.955 21.7922C9.86555 21.1984 9.64331 20.6324 9.30482 20.1364C8.96634 19.6403 8.52033 19.227 8 18.9272C7.48036 18.6268 6.8997 18.4475 6.30119 18.4025C5.70268 18.3575 5.10172 18.448 4.543 18.6672C3.6246 17.6389 2.92901 16.4315 2.5 15.1212C2.96839 14.7468 3.34646 14.2718 3.60613 13.7313C3.86581 13.1909 4.00043 12.5988 4 11.9992C4.00049 11.3991 3.86571 10.8066 3.60567 10.2657C3.34563 9.72488 2.96702 9.24959 2.498 8.87522C2.92967 7.56634 3.62612 6.36032 4.544 5.33221C5.10265 5.55117 5.70347 5.64141 6.30179 5.59623C6.90012 5.55104 7.48057 5.37159 8 5.07121C8.51955 4.77181 8.96499 4.35924 9.30326 3.86412C9.64153 3.369 9.86395 2.80406 9.954 2.21121V2.21021ZM12 15.0002C12.7956 15.0002 13.5587 14.6841 14.1213 14.1215C14.6839 13.5589 15 12.7959 15 12.0002C15 11.2046 14.6839 10.4415 14.1213 9.87889C13.5587 9.31629 12.7956 9.00022 12 9.00022C11.2044 9.00022 10.4413 9.31629 9.87868 9.87889C9.31607 10.4415 9 11.2046 9 12.0002C9 12.7959 9.31607 13.5589 9.87868 14.1215C10.4413 14.6841 11.2044 15.0002 12 15.0002Z" fill="#03053D"/>
</svg>
