<svg width="24" height="24" viewBox="0 0 24 24" fill="none" xmlns="http://www.w3.org/2000/svg">
<path d="M8.686 3.99988L11.293 1.39288C11.4805 1.20541 11.7348 1.1001 12 1.1001C12.2652 1.1001 12.5195 1.20541 12.707 1.39288L15.314 3.99988H19C19.2652 3.99988 19.5196 4.10524 19.7071 4.29278C19.8946 4.48031 20 4.73467 20 4.99988V8.68588L22.607 11.2929C22.7945 11.4804 22.8998 11.7347 22.8998 11.9999C22.8998 12.265 22.7945 12.5194 22.607 12.7069L20 15.3139V18.9999C20 19.2651 19.8946 19.5195 19.7071 19.707C19.5196 19.8945 19.2652 19.9999 19 19.9999H15.314L12.707 22.6069C12.5195 22.7944 12.2652 22.8997 12 22.8997C11.7348 22.8997 11.4805 22.7944 11.293 22.6069L8.686 19.9999H5C4.73478 19.9999 4.48043 19.8945 4.29289 19.707C4.10536 19.5195 4 19.2651 4 18.9999V15.3139L1.393 12.7069C1.20553 12.5194 1.10021 12.265 1.10021 11.9999C1.10021 11.7347 1.20553 11.4804 1.393 11.2929L4 8.68588V4.99988C4 4.73467 4.10536 4.48031 4.29289 4.29278C4.48043 4.10524 4.73478 3.99988 5 3.99988H8.686ZM12 14.9999C12.7956 14.9999 13.5587 14.6838 14.1213 14.1212C14.6839 13.5586 15 12.7955 15 11.9999C15 11.2042 14.6839 10.4412 14.1213 9.87856C13.5587 9.31595 12.7956 8.99988 12 8.99988C11.2043 8.99988 10.4413 9.31595 9.87868 9.87856C9.31607 10.4412 9 11.2042 9 11.9999C9 12.7955 9.31607 13.5586 9.87868 14.1212C10.4413 14.6838 11.2043 14.9999 12 14.9999Z" fill="#03053D"/>
</svg>
