<svg width="24" height="24" viewBox="0 0 24 24" fill="none" xmlns="http://www.w3.org/2000/svg">
<path d="M5.334 4.54507C6.36073 3.62535 7.56669 2.92806 8.876 2.49707C9.25038 2.96609 9.72567 3.3447 10.2665 3.60474C10.8074 3.86478 11.3999 3.99956 12 3.99907C12.6001 3.99956 13.1926 3.86478 13.7335 3.60474C14.2743 3.3447 14.7496 2.96609 15.124 2.49707C16.4333 2.92806 17.6393 3.62535 18.666 4.54507C18.4475 5.10352 18.3576 5.70401 18.403 6.30196C18.4483 6.89991 18.6278 7.47997 18.928 7.99907C19.2276 8.51916 19.6406 8.96502 20.1363 9.30349C20.6319 9.64196 21.1975 9.86433 21.791 9.95407C22.0716 11.303 22.0716 12.6952 21.791 14.0441C20.631 14.2221 19.561 14.9041 18.928 15.9991C18.6276 16.5183 18.4481 17.0985 18.4027 17.6967C18.3574 18.2948 18.4474 18.8955 18.666 19.4541C17.6392 20.3734 16.4332 21.0704 15.124 21.5011C14.7495 21.0322 14.2742 20.6538 13.7333 20.394C13.1925 20.1341 12.6 19.9995 12 20.0001C11.3999 19.9996 10.8074 20.1344 10.2665 20.3944C9.72567 20.6544 9.25038 21.033 8.876 21.5021C7.56677 21.0714 6.36082 20.3744 5.334 19.4551C5.55265 18.8965 5.64264 18.2958 5.59728 17.6977C5.55193 17.0995 5.37239 16.5193 5.072 16.0001C4.77229 15.4802 4.35925 15.0345 3.86359 14.6962C3.36792 14.3579 2.80238 14.1357 2.209 14.0461C1.92832 12.6968 1.92832 11.3043 2.209 9.95507C2.80247 9.86533 3.36807 9.64296 3.86374 9.30449C4.35941 8.96602 4.77241 8.52016 5.072 8.00007C5.37223 7.48097 5.55169 6.90091 5.59704 6.30296C5.6424 5.70501 5.5525 5.10452 5.334 4.54607V4.54507ZM13.5 14.5971C13.8439 14.4015 14.1458 14.1399 14.3882 13.8272C14.6306 13.5145 14.8088 13.157 14.9124 12.7751C15.0161 12.3933 15.0432 11.9948 14.9922 11.6024C14.9412 11.2101 14.8131 10.8317 14.6153 10.4891C14.4175 10.1465 14.1538 9.84634 13.8395 9.60601C13.5253 9.36569 13.1665 9.1899 12.784 9.08877C12.4015 8.98765 12.0028 8.96318 11.6108 9.01678C11.2188 9.07037 10.8413 9.20098 10.5 9.40107C9.81658 9.80172 9.31938 10.4564 9.11689 11.2223C8.9144 11.9882 9.02307 12.8031 9.41918 13.4892C9.81529 14.1752 10.4667 14.6768 11.2312 14.8843C11.9957 15.0919 12.8113 14.9886 13.5 14.5971Z" fill="#03053D"/>
</svg>
