<svg width="24" height="24" viewBox="0 0 24 24" fill="none" xmlns="http://www.w3.org/2000/svg">
<path d="M9 3.00023V5.00023H4V19.0002H20V10.0002H22V20.0002C22 20.2654 21.8946 20.5198 21.7071 20.7073C21.5196 20.8949 21.2652 21.0002 21 21.0002H3C2.73478 21.0002 2.48043 20.8949 2.29289 20.7073C2.10536 20.5198 2 20.2654 2 20.0002V4.00023C2 3.73501 2.10536 3.48066 2.29289 3.29312C2.48043 3.10559 2.73478 3.00023 3 3.00023H9ZM18.95 5.00023L16 2.05023L17.414 0.63623L22.754 5.97623C22.8378 6.06014 22.8949 6.167 22.918 6.28332C22.9411 6.39964 22.9292 6.5202 22.8838 6.62977C22.8385 6.73934 22.7616 6.83301 22.6631 6.89894C22.5645 6.96488 22.4486 7.00013 22.33 7.00023H14C13.4696 7.00023 12.9609 7.21094 12.5858 7.58602C12.2107 7.96109 12 8.4698 12 9.00023V15.0002H10V9.00023C10 7.93936 10.4214 6.92195 11.1716 6.1718C11.9217 5.42166 12.9391 5.00023 14 5.00023H18.95Z" fill="#03053D"/>
</svg>
