<svg width="24" height="24" viewBox="0 0 24 24" fill="none" xmlns="http://www.w3.org/2000/svg">
<path d="M12 12.586L16.243 16.828L14.828 18.243L13 16.415V22H11V16.413L9.17199 18.243L7.75699 16.828L12 12.586ZM12 2C13.717 2.00008 15.3741 2.63111 16.6562 3.77312C17.9383 4.91512 18.7561 6.48846 18.954 8.194C20.1983 8.53332 21.2837 9.2991 22.0206 10.3575C22.7576 11.416 23.0991 12.6997 22.9856 13.9844C22.8721 15.2691 22.3107 16.473 21.3995 17.3858C20.4884 18.2986 19.2855 18.8622 18.001 18.978L18 17C18.0016 15.4271 17.3855 13.9166 16.2843 12.7935C15.1832 11.6703 13.6851 11.0245 12.1125 10.995C10.5399 10.9655 9.01865 11.5547 7.87617 12.6357C6.73369 13.7168 6.06139 15.2032 6.00399 16.775L5.99999 17V18.978C4.71544 18.8623 3.51239 18.2989 2.60112 17.3862C1.68985 16.4735 1.12831 15.2696 1.01466 13.9848C0.901007 12.7001 1.24247 11.4163 1.97935 10.3578C2.71624 9.29926 3.80169 8.53339 5.04599 8.194C5.24369 6.48838 6.06139 4.91491 7.34357 3.77287C8.62574 2.63082 10.2829 1.99986 12 2Z" fill="#03053D"/>
</svg>
