<svg width="24" height="24" viewBox="0 0 24 24" fill="none" xmlns="http://www.w3.org/2000/svg">
<path d="M7 20.9808C5.63405 20.8759 4.33616 20.3421 3.29165 19.4556C2.24715 18.5692 1.50944 17.3753 1.18385 16.0446C0.858269 14.7139 0.961464 13.3143 1.4787 12.0457C1.99594 10.7772 2.90077 9.70445 4.064 8.98076C4.31151 7.05085 5.25379 5.27727 6.71451 3.99192C8.17523 2.70658 10.0543 1.99756 12 1.99756C13.9457 1.99756 15.8248 2.70658 17.2855 3.99192C18.7462 5.27727 19.6885 7.05085 19.936 8.98076C21.0992 9.70445 22.0041 10.7772 22.5213 12.0457C23.0385 13.3143 23.1417 14.7139 22.8161 16.0446C22.4906 17.3753 21.7528 18.5692 20.7083 19.4556C19.6638 20.3421 18.3659 20.8759 17 20.9808V20.9998H7V20.9808ZM13 12.9998H16L12 7.99976L8 12.9998H11V16.9998H13V12.9998Z" fill="#03053D"/>
</svg>
